<svg xmlns="http://www.w3.org/2000/svg" fill="none" height="44" viewBox="0 0 44 44" width="44">
<g fill="#913de2">
<path d="M25.6667 16.5V12.8333H17.8934L19.0039 5.5H15.3941L14.2267 12.8333H6.7606L6.4398 16.5H13.5851L11.6417 27.5H4.1756L3.8548 31.1667H11.0001L9.702 38.488 13.38 38.499 14.6667 31.1667H25.6667L24.395 38.498 28.046 38.506 29.3334 31.1667H36.7995L37.388 27.496H29.9751L30.855 22.005H27.261L26.3092 27.5H15.3092L17.2525 16.5Z"/>
<path d="M38.5458 9.1667V3.6667H31.1666V9.1667H29.3333V18.3333H40.3333V9.1667ZM36.6666 9.1667H33V5.5H36.6666Z"/>
</g>
</svg>
