<svg xmlns="http://www.w3.org/2000/svg" viewBox="1 0 26 20">
  <path d="M23.0212 1.6767C21.3107.8797 19.5079.3188 17.6584 0 17.4062.4617 17.1749.9345 16.9708 1.4184 15.003 1.1215 12.9974 1.1215 11.0283 1.4184 10.819.9345 10.589.4617 10.3368.0055 8.4807.3244 6.678.8851 4.9675 1.6823 1.5673 6.7785.6497 11.7538 1.1111 16.652 3.101 18.1418 5.3262 19.2743 7.6918 20 8.2234 19.2743 8.6952 18.4993 9.0981 17.691 8.33 17.3997 7.5852 17.0424 6.8768 16.6135 7.0653 16.4762 7.2473 16.3387 7.424 16.1847 11.5911 18.1749 16.408 18.1749 20.5763 16.1847 20.7531 16.3332 20.9351 16.4762 21.1171 16.6135 20.41 17.0369 19.6639 17.3997 18.897 17.691 19.3052 18.4993 19.7718 19.2689 20.3021 19.9945 22.6677 19.2689 24.8929 18.1364 26.8828 16.6466H26.8893C27.43 10.9731 25.9665 6.0473 23.0212 1.6767ZM9.6804 13.6383C8.3975 13.6383 7.3408 12.4453 7.3408 10.994 7.3408 9.5427 8.3715 8.3497 9.6804 8.3497 10.9893 8.3497 12.0395 9.5427 12.0187 10.994 12.0187 12.4453 10.9828 13.6383 9.6804 13.6383ZM18.3161 13.6383C17.0332 13.6383 15.9765 12.4453 15.9765 10.994 15.9765 9.5427 17.0124 8.3497 18.3161 8.3497 19.6184 8.3497 20.6751 9.5427 20.6543 10.994 20.6543 12.4453 19.6184 13.6383 18.3161 13.6383Z" fill="#000000"/>
</svg>
